<mxfile host="65bd71144e" pages="3">
    <diagram id="KrGm9H9LBBjToi6lWLI2" name="TD1ex1">
        <mxGraphModel dx="896" dy="604" grid="1" gridSize="10" guides="1" tooltips="1" connect="1" arrows="1" fold="1" page="1" pageScale="1" pageWidth="827" pageHeight="1169" math="0" shadow="0">
            <root>
                <mxCell id="0"/>
                <mxCell id="1" parent="0"/>
                <mxCell id="lbo81SNFxHxZ5VwKc9Ik-1" value="Médicament&lt;span style=&quot;font-size: medium; font-weight: 400; text-align: start;&quot;&gt;&lt;/span&gt;" style="swimlane;fontStyle=1;childLayout=stackLayout;horizontal=1;startSize=30;horizontalStack=0;resizeParent=1;resizeParentMax=0;resizeLast=0;collapsible=1;marginBottom=0;whiteSpace=wrap;html=1;spacingLeft=0;fontSize=14;fontFamily=FiraCode Nerd Font Propo;" parent="1" vertex="1">
                    <mxGeometry x="57" y="233" width="140" height="90" as="geometry"/>
                </mxCell>
                <mxCell id="lbo81SNFxHxZ5VwKc9Ik-2" value="&lt;u&gt;Code&lt;/u&gt;" style="text;strokeColor=none;fillColor=none;align=left;verticalAlign=middle;spacingLeft=11;spacingRight=4;overflow=hidden;points=[[0,0.5],[1,0.5]];portConstraint=eastwest;rotatable=0;whiteSpace=wrap;html=1;fontSize=14;fontFamily=FiraCode Nerd Font Propo;" parent="lbo81SNFxHxZ5VwKc9Ik-1" vertex="1">
                    <mxGeometry y="30" width="140" height="30" as="geometry"/>
                </mxCell>
                <mxCell id="lbo81SNFxHxZ5VwKc9Ik-3" value="Libellé" style="text;strokeColor=none;fillColor=none;align=left;verticalAlign=middle;spacingLeft=11;spacingRight=4;overflow=hidden;points=[[0,0.5],[1,0.5]];portConstraint=eastwest;rotatable=0;whiteSpace=wrap;html=1;fontSize=14;fontFamily=FiraCode Nerd Font Propo;" parent="lbo81SNFxHxZ5VwKc9Ik-1" vertex="1">
                    <mxGeometry y="60" width="140" height="30" as="geometry"/>
                </mxCell>
                <mxCell id="lbo81SNFxHxZ5VwKc9Ik-5" value="Prescrit&lt;font style=&quot;font-size: 12px;&quot;&gt;&lt;br&gt;Nb prises&lt;/font&gt;" style="ellipse;whiteSpace=wrap;html=1;fontSize=14;fontFamily=FiraCode Nerd Font Propo;" parent="1" vertex="1">
                    <mxGeometry x="57" y="403" width="140" height="55" as="geometry"/>
                </mxCell>
                <mxCell id="lbo81SNFxHxZ5VwKc9Ik-6" value="0,n" style="endArrow=none;html=1;rounded=0;exitX=0.5;exitY=1.1;exitDx=0;exitDy=0;entryX=0.5;entryY=0;entryDx=0;entryDy=0;fontSize=14;exitPerimeter=0;shape=link;fontFamily=FiraCode Nerd Font Propo;" parent="1" source="lbo81SNFxHxZ5VwKc9Ik-3" target="lbo81SNFxHxZ5VwKc9Ik-5" edge="1">
                    <mxGeometry width="50" height="50" relative="1" as="geometry">
                        <mxPoint x="310" y="430" as="sourcePoint"/>
                        <mxPoint x="360" y="380" as="targetPoint"/>
                    </mxGeometry>
                </mxCell>
                <mxCell id="lbo81SNFxHxZ5VwKc9Ik-7" value="0,n" style="endArrow=none;html=1;rounded=0;exitX=0.5;exitY=1;exitDx=0;exitDy=0;entryX=0;entryY=0.5;entryDx=0;entryDy=0;fontSize=14;shape=link;fontFamily=FiraCode Nerd Font Propo;" parent="1" source="lbo81SNFxHxZ5VwKc9Ik-5" target="lbo81SNFxHxZ5VwKc9Ik-9" edge="1">
                    <mxGeometry width="50" height="50" relative="1" as="geometry">
                        <mxPoint x="310" y="430" as="sourcePoint"/>
                        <mxPoint x="468.03999999999996" y="290" as="targetPoint"/>
                    </mxGeometry>
                </mxCell>
                <mxCell id="lbo81SNFxHxZ5VwKc9Ik-8" value="Consultation&lt;span style=&quot;font-size: medium; font-weight: 400; text-align: start;&quot;&gt;&lt;/span&gt;" style="swimlane;fontStyle=1;childLayout=stackLayout;horizontal=1;startSize=30;horizontalStack=0;resizeParent=1;resizeParentMax=0;resizeLast=0;collapsible=1;marginBottom=0;whiteSpace=wrap;html=1;fontSize=14;fontFamily=FiraCode Nerd Font Propo;" parent="1" vertex="1">
                    <mxGeometry x="270" y="530" width="140" height="90" as="geometry"/>
                </mxCell>
                <mxCell id="lbo81SNFxHxZ5VwKc9Ik-9" value="&lt;u&gt;N°&lt;/u&gt;" style="text;strokeColor=none;fillColor=none;align=left;verticalAlign=middle;spacingLeft=10;spacingRight=4;overflow=hidden;points=[[0,0.5],[1,0.5]];portConstraint=eastwest;rotatable=0;whiteSpace=wrap;html=1;fontSize=14;fontFamily=FiraCode Nerd Font Propo;" parent="lbo81SNFxHxZ5VwKc9Ik-8" vertex="1">
                    <mxGeometry y="30" width="140" height="30" as="geometry"/>
                </mxCell>
                <mxCell id="lbo81SNFxHxZ5VwKc9Ik-10" value="Date" style="text;strokeColor=none;fillColor=none;align=left;verticalAlign=middle;spacingLeft=10;spacingRight=4;overflow=hidden;points=[[0,0.5],[1,0.5]];portConstraint=eastwest;rotatable=0;whiteSpace=wrap;html=1;fontSize=14;fontFamily=FiraCode Nerd Font Propo;" parent="lbo81SNFxHxZ5VwKc9Ik-8" vertex="1">
                    <mxGeometry y="60" width="140" height="30" as="geometry"/>
                </mxCell>
                <mxCell id="lbo81SNFxHxZ5VwKc9Ik-11" value="Donne" style="ellipse;whiteSpace=wrap;html=1;fontSize=14;fontFamily=FiraCode Nerd Font Propo;" parent="1" vertex="1">
                    <mxGeometry x="270" y="370" width="140" height="55" as="geometry"/>
                </mxCell>
                <mxCell id="lbo81SNFxHxZ5VwKc9Ik-12" value="1,1&lt;br&gt;" style="endArrow=none;html=1;rounded=0;entryX=0.5;entryY=1;entryDx=0;entryDy=0;fontSize=14;exitX=0.5;exitY=0;exitDx=0;exitDy=0;shape=link;fontFamily=FiraCode Nerd Font Propo;" parent="1" source="lbo81SNFxHxZ5VwKc9Ik-8" target="lbo81SNFxHxZ5VwKc9Ik-11" edge="1">
                    <mxGeometry width="50" height="50" relative="1" as="geometry">
                        <mxPoint x="524.96" y="365.99" as="sourcePoint"/>
                        <mxPoint x="450" y="680" as="targetPoint"/>
                    </mxGeometry>
                </mxCell>
                <mxCell id="lbo81SNFxHxZ5VwKc9Ik-13" value="0,n" style="endArrow=none;html=1;rounded=0;exitX=0.5;exitY=0;exitDx=0;exitDy=0;entryX=0.493;entryY=1.067;entryDx=0;entryDy=0;fontSize=14;entryPerimeter=0;shape=link;fontFamily=FiraCode Nerd Font Propo;" parent="1" source="lbo81SNFxHxZ5VwKc9Ik-11" target="lbo81SNFxHxZ5VwKc9Ik-16" edge="1">
                    <mxGeometry width="50" height="50" relative="1" as="geometry">
                        <mxPoint x="400" y="730" as="sourcePoint"/>
                        <mxPoint x="558.04" y="590" as="targetPoint"/>
                    </mxGeometry>
                </mxCell>
                <mxCell id="lbo81SNFxHxZ5VwKc9Ik-14" value="Médecin&lt;span style=&quot;font-size: medium; font-weight: 400; text-align: start;&quot;&gt;&lt;/span&gt;" style="swimlane;fontStyle=1;childLayout=stackLayout;horizontal=1;startSize=30;horizontalStack=0;resizeParent=1;resizeParentMax=0;resizeLast=0;collapsible=1;marginBottom=0;whiteSpace=wrap;html=1;fontSize=14;fontFamily=FiraCode Nerd Font Propo;" parent="1" vertex="1">
                    <mxGeometry x="271" y="208" width="140" height="90" as="geometry"/>
                </mxCell>
                <mxCell id="lbo81SNFxHxZ5VwKc9Ik-15" value="&lt;u&gt;Matricule&lt;/u&gt;" style="text;strokeColor=none;fillColor=none;align=left;verticalAlign=middle;spacingLeft=10;spacingRight=4;overflow=hidden;points=[[0,0.5],[1,0.5]];portConstraint=eastwest;rotatable=0;whiteSpace=wrap;html=1;fontSize=14;fontFamily=FiraCode Nerd Font Propo;" parent="lbo81SNFxHxZ5VwKc9Ik-14" vertex="1">
                    <mxGeometry y="30" width="140" height="30" as="geometry"/>
                </mxCell>
                <mxCell id="lbo81SNFxHxZ5VwKc9Ik-16" value="Nom" style="text;strokeColor=none;fillColor=none;align=left;verticalAlign=middle;spacingLeft=10;spacingRight=4;overflow=hidden;points=[[0,0.5],[1,0.5]];portConstraint=eastwest;rotatable=0;whiteSpace=wrap;html=1;fontSize=14;fontFamily=FiraCode Nerd Font Propo;" parent="lbo81SNFxHxZ5VwKc9Ik-14" vertex="1">
                    <mxGeometry y="60" width="140" height="30" as="geometry"/>
                </mxCell>
                <mxCell id="lbo81SNFxHxZ5VwKc9Ik-17" value="Assiste" style="ellipse;whiteSpace=wrap;html=1;fontSize=14;fontFamily=FiraCode Nerd Font Propo;" parent="1" vertex="1">
                    <mxGeometry x="490" y="425" width="140" height="55" as="geometry"/>
                </mxCell>
                <mxCell id="lbo81SNFxHxZ5VwKc9Ik-18" value="1,n" style="endArrow=none;html=1;rounded=0;entryX=0.5;entryY=0;entryDx=0;entryDy=0;fontSize=14;exitX=0.479;exitY=1.167;exitDx=0;exitDy=0;exitPerimeter=0;shape=link;fontFamily=FiraCode Nerd Font Propo;" parent="1" source="lbo81SNFxHxZ5VwKc9Ik-22" target="lbo81SNFxHxZ5VwKc9Ik-17" edge="1">
                    <mxGeometry width="50" height="50" relative="1" as="geometry">
                        <mxPoint x="520" y="360" as="sourcePoint"/>
                        <mxPoint x="445" y="705" as="targetPoint"/>
                    </mxGeometry>
                </mxCell>
                <mxCell id="lbo81SNFxHxZ5VwKc9Ik-19" value="1,1" style="endArrow=none;html=1;rounded=0;exitX=0.5;exitY=1;exitDx=0;exitDy=0;entryX=1;entryY=0.5;entryDx=0;entryDy=0;fontSize=14;shape=link;fontFamily=FiraCode Nerd Font Propo;" parent="1" source="lbo81SNFxHxZ5VwKc9Ik-17" target="lbo81SNFxHxZ5VwKc9Ik-9" edge="1">
                    <mxGeometry width="50" height="50" relative="1" as="geometry">
                        <mxPoint x="395" y="755" as="sourcePoint"/>
                        <mxPoint x="520" y="558" as="targetPoint"/>
                    </mxGeometry>
                </mxCell>
                <mxCell id="lbo81SNFxHxZ5VwKc9Ik-20" value="Patient&lt;span style=&quot;font-size: medium; font-weight: 400; text-align: start;&quot;&gt;&lt;/span&gt;" style="swimlane;fontStyle=1;childLayout=stackLayout;horizontal=1;startSize=30;horizontalStack=0;resizeParent=1;resizeParentMax=0;resizeLast=0;collapsible=1;marginBottom=0;whiteSpace=wrap;html=1;fontSize=14;fontFamily=FiraCode Nerd Font Propo;" parent="1" vertex="1">
                    <mxGeometry x="493" y="208" width="140" height="90" as="geometry"/>
                </mxCell>
                <mxCell id="lbo81SNFxHxZ5VwKc9Ik-21" value="&lt;u&gt;N° SS&lt;/u&gt;" style="text;strokeColor=none;fillColor=none;align=left;verticalAlign=middle;spacingLeft=10;spacingRight=4;overflow=hidden;points=[[0,0.5],[1,0.5]];portConstraint=eastwest;rotatable=0;whiteSpace=wrap;html=1;fontSize=14;fontFamily=FiraCode Nerd Font Propo;" parent="lbo81SNFxHxZ5VwKc9Ik-20" vertex="1">
                    <mxGeometry y="30" width="140" height="30" as="geometry"/>
                </mxCell>
                <mxCell id="lbo81SNFxHxZ5VwKc9Ik-22" value="Nom" style="text;strokeColor=none;fillColor=none;align=left;verticalAlign=middle;spacingLeft=10;spacingRight=4;overflow=hidden;points=[[0,0.5],[1,0.5]];portConstraint=eastwest;rotatable=0;whiteSpace=wrap;html=1;fontSize=14;fontFamily=FiraCode Nerd Font Propo;" parent="lbo81SNFxHxZ5VwKc9Ik-20" vertex="1">
                    <mxGeometry y="60" width="140" height="30" as="geometry"/>
                </mxCell>
            </root>
        </mxGraphModel>
    </diagram>
    <diagram id="0HoRR4G1-XdYR07yHSxV" name="TD1ex2">
        <mxGraphModel dx="792" dy="818" grid="1" gridSize="10" guides="1" tooltips="1" connect="1" arrows="1" fold="1" page="1" pageScale="1" pageWidth="827" pageHeight="1169" math="0" shadow="0">
            <root>
                <mxCell id="0"/>
                <mxCell id="1" parent="0"/>
                <mxCell id="g60QRWRwQvDOfJCWqb5j-1" value="Joueur&lt;span style=&quot;font-family: -webkit-standard; font-size: medium; font-weight: 400; text-align: start;&quot;&gt;&lt;/span&gt;" style="swimlane;fontStyle=1;childLayout=stackLayout;horizontal=1;startSize=30;horizontalStack=0;resizeParent=1;resizeParentMax=0;resizeLast=0;collapsible=1;marginBottom=0;whiteSpace=wrap;html=1;spacingLeft=0;fontSize=14;" parent="1" vertex="1">
                    <mxGeometry x="57" y="233" width="140" height="90" as="geometry"/>
                </mxCell>
                <mxCell id="g60QRWRwQvDOfJCWqb5j-2" value="&lt;u&gt;N° carte&lt;/u&gt;" style="text;strokeColor=none;fillColor=none;align=left;verticalAlign=middle;spacingLeft=11;spacingRight=4;overflow=hidden;points=[[0,0.5],[1,0.5]];portConstraint=eastwest;rotatable=0;whiteSpace=wrap;html=1;fontSize=14;" parent="g60QRWRwQvDOfJCWqb5j-1" vertex="1">
                    <mxGeometry y="30" width="140" height="30" as="geometry"/>
                </mxCell>
                <mxCell id="g60QRWRwQvDOfJCWqb5j-3" value="Nom" style="text;strokeColor=none;fillColor=none;align=left;verticalAlign=middle;spacingLeft=11;spacingRight=4;overflow=hidden;points=[[0,0.5],[1,0.5]];portConstraint=eastwest;rotatable=0;whiteSpace=wrap;html=1;fontSize=14;" parent="g60QRWRwQvDOfJCWqb5j-1" vertex="1">
                    <mxGeometry y="60" width="140" height="30" as="geometry"/>
                </mxCell>
                <mxCell id="g60QRWRwQvDOfJCWqb5j-4" value="Participe" style="ellipse;whiteSpace=wrap;html=1;fontSize=14;" parent="1" vertex="1">
                    <mxGeometry x="57" y="403" width="140" height="55" as="geometry"/>
                </mxCell>
                <mxCell id="g60QRWRwQvDOfJCWqb5j-5" value="0,n" style="endArrow=none;html=1;rounded=0;exitX=0.5;exitY=1.1;exitDx=0;exitDy=0;entryX=0.5;entryY=0;entryDx=0;entryDy=0;fontSize=14;exitPerimeter=0;" parent="1" source="g60QRWRwQvDOfJCWqb5j-3" target="g60QRWRwQvDOfJCWqb5j-4" edge="1">
                    <mxGeometry width="50" height="50" relative="1" as="geometry">
                        <mxPoint x="310" y="430" as="sourcePoint"/>
                        <mxPoint x="360" y="380" as="targetPoint"/>
                    </mxGeometry>
                </mxCell>
                <mxCell id="g60QRWRwQvDOfJCWqb5j-6" value="1,n" style="endArrow=none;html=1;rounded=0;exitX=0.5;exitY=1;exitDx=0;exitDy=0;entryX=0;entryY=0.5;entryDx=0;entryDy=0;fontSize=14;" parent="1" source="g60QRWRwQvDOfJCWqb5j-4" target="g60QRWRwQvDOfJCWqb5j-8" edge="1">
                    <mxGeometry width="50" height="50" relative="1" as="geometry">
                        <mxPoint x="310" y="430" as="sourcePoint"/>
                        <mxPoint x="468.03999999999996" y="290" as="targetPoint"/>
                    </mxGeometry>
                </mxCell>
                <mxCell id="g60QRWRwQvDOfJCWqb5j-7" value="Match&lt;span style=&quot;font-family: -webkit-standard; font-size: medium; font-weight: 400; text-align: start;&quot;&gt;&lt;/span&gt;" style="swimlane;fontStyle=1;childLayout=stackLayout;horizontal=1;startSize=30;horizontalStack=0;resizeParent=1;resizeParentMax=0;resizeLast=0;collapsible=1;marginBottom=0;whiteSpace=wrap;html=1;fontSize=14;" parent="1" vertex="1">
                    <mxGeometry x="270" y="530" width="140" height="90" as="geometry"/>
                </mxCell>
                <mxCell id="g60QRWRwQvDOfJCWqb5j-8" value="&lt;u&gt;N° match&lt;/u&gt;" style="text;strokeColor=none;fillColor=none;align=left;verticalAlign=middle;spacingLeft=10;spacingRight=4;overflow=hidden;points=[[0,0.5],[1,0.5]];portConstraint=eastwest;rotatable=0;whiteSpace=wrap;html=1;fontSize=14;" parent="g60QRWRwQvDOfJCWqb5j-7" vertex="1">
                    <mxGeometry y="30" width="140" height="30" as="geometry"/>
                </mxCell>
                <mxCell id="g60QRWRwQvDOfJCWqb5j-9" value="Horaire" style="text;strokeColor=none;fillColor=none;align=left;verticalAlign=middle;spacingLeft=10;spacingRight=4;overflow=hidden;points=[[0,0.5],[1,0.5]];portConstraint=eastwest;rotatable=0;whiteSpace=wrap;html=1;fontSize=14;" parent="g60QRWRwQvDOfJCWqb5j-7" vertex="1">
                    <mxGeometry y="60" width="140" height="30" as="geometry"/>
                </mxCell>
                <mxCell id="g60QRWRwQvDOfJCWqb5j-10" value="Gagne&lt;br&gt;&lt;font style=&quot;font-size: 12px;&quot;&gt;Score&lt;/font&gt;" style="ellipse;whiteSpace=wrap;html=1;fontSize=14;" parent="1" vertex="1">
                    <mxGeometry x="250" y="340" width="140" height="55" as="geometry"/>
                </mxCell>
                <mxCell id="g60QRWRwQvDOfJCWqb5j-11" value="1,1&lt;br&gt;" style="endArrow=none;html=1;rounded=0;entryX=0.5;entryY=1;entryDx=0;entryDy=0;fontSize=14;exitX=0.5;exitY=0;exitDx=0;exitDy=0;" parent="1" source="g60QRWRwQvDOfJCWqb5j-7" target="g60QRWRwQvDOfJCWqb5j-10" edge="1">
                    <mxGeometry width="50" height="50" relative="1" as="geometry">
                        <mxPoint x="524.96" y="365.99" as="sourcePoint"/>
                        <mxPoint x="450" y="680" as="targetPoint"/>
                    </mxGeometry>
                </mxCell>
                <mxCell id="g60QRWRwQvDOfJCWqb5j-12" value="0,n" style="endArrow=none;html=1;rounded=0;exitX=0.5;exitY=0;exitDx=0;exitDy=0;entryX=1;entryY=0.5;entryDx=0;entryDy=0;fontSize=14;" parent="1" source="g60QRWRwQvDOfJCWqb5j-10" target="g60QRWRwQvDOfJCWqb5j-2" edge="1">
                    <mxGeometry width="50" height="50" relative="1" as="geometry">
                        <mxPoint x="400" y="730" as="sourcePoint"/>
                        <mxPoint x="558.04" y="590" as="targetPoint"/>
                    </mxGeometry>
                </mxCell>
                <mxCell id="g60QRWRwQvDOfJCWqb5j-13" value="Terrain&lt;span style=&quot;font-family: -webkit-standard; font-size: medium; font-weight: 400; text-align: start;&quot;&gt;&lt;/span&gt;" style="swimlane;fontStyle=1;childLayout=stackLayout;horizontal=1;startSize=30;horizontalStack=0;resizeParent=1;resizeParentMax=0;resizeLast=0;collapsible=1;marginBottom=0;whiteSpace=wrap;html=1;fontSize=14;" parent="1" vertex="1">
                    <mxGeometry x="490" y="210" width="140" height="90" as="geometry"/>
                </mxCell>
                <mxCell id="g60QRWRwQvDOfJCWqb5j-14" value="&lt;u&gt;N° terrain&lt;/u&gt;" style="text;strokeColor=none;fillColor=none;align=left;verticalAlign=middle;spacingLeft=10;spacingRight=4;overflow=hidden;points=[[0,0.5],[1,0.5]];portConstraint=eastwest;rotatable=0;whiteSpace=wrap;html=1;fontSize=14;" parent="g60QRWRwQvDOfJCWqb5j-13" vertex="1">
                    <mxGeometry y="30" width="140" height="30" as="geometry"/>
                </mxCell>
                <mxCell id="g60QRWRwQvDOfJCWqb5j-15" value="Surface" style="text;strokeColor=none;fillColor=none;align=left;verticalAlign=middle;spacingLeft=10;spacingRight=4;overflow=hidden;points=[[0,0.5],[1,0.5]];portConstraint=eastwest;rotatable=0;whiteSpace=wrap;html=1;fontSize=14;" parent="g60QRWRwQvDOfJCWqb5j-13" vertex="1">
                    <mxGeometry y="60" width="140" height="30" as="geometry"/>
                </mxCell>
                <mxCell id="g60QRWRwQvDOfJCWqb5j-16" value="Se joue sur" style="ellipse;whiteSpace=wrap;html=1;fontSize=14;" parent="1" vertex="1">
                    <mxGeometry x="490" y="425" width="140" height="55" as="geometry"/>
                </mxCell>
                <mxCell id="g60QRWRwQvDOfJCWqb5j-17" value="0,n" style="endArrow=none;html=1;rounded=0;entryX=0.5;entryY=0;entryDx=0;entryDy=0;fontSize=14;exitX=0.493;exitY=1.133;exitDx=0;exitDy=0;exitPerimeter=0;" parent="1" source="g60QRWRwQvDOfJCWqb5j-15" target="g60QRWRwQvDOfJCWqb5j-16" edge="1">
                    <mxGeometry width="50" height="50" relative="1" as="geometry">
                        <mxPoint x="560.06" y="303.01" as="sourcePoint"/>
                        <mxPoint x="445" y="705" as="targetPoint"/>
                    </mxGeometry>
                </mxCell>
                <mxCell id="g60QRWRwQvDOfJCWqb5j-18" value="1,1" style="endArrow=none;html=1;rounded=0;exitX=0.5;exitY=1;exitDx=0;exitDy=0;entryX=1;entryY=0.5;entryDx=0;entryDy=0;fontSize=14;" parent="1" source="g60QRWRwQvDOfJCWqb5j-16" target="g60QRWRwQvDOfJCWqb5j-8" edge="1">
                    <mxGeometry width="50" height="50" relative="1" as="geometry">
                        <mxPoint x="395" y="755" as="sourcePoint"/>
                        <mxPoint x="520" y="558" as="targetPoint"/>
                    </mxGeometry>
                </mxCell>
            </root>
        </mxGraphModel>
    </diagram>
    <diagram id="fxh9TV8eYQUPz7f46UBT" name="TD1ex3">
        <mxGraphModel dx="792" dy="818" grid="1" gridSize="10" guides="1" tooltips="1" connect="1" arrows="1" fold="1" page="1" pageScale="1" pageWidth="827" pageHeight="1169" math="0" shadow="0">
            <root>
                <mxCell id="0"/>
                <mxCell id="1" parent="0"/>
                <mxCell id="QgcBFsD6iGo6vyBVgqZz-1" value="Journaliste&lt;span style=&quot;font-family: -webkit-standard; font-size: medium; font-weight: 400; text-align: start;&quot;&gt;&lt;/span&gt;" style="swimlane;fontStyle=1;childLayout=stackLayout;horizontal=1;startSize=30;horizontalStack=0;resizeParent=1;resizeParentMax=0;resizeLast=0;collapsible=1;marginBottom=0;whiteSpace=wrap;html=1;spacingLeft=0;fontSize=14;" parent="1" vertex="1">
                    <mxGeometry x="57" y="163" width="140" height="120" as="geometry"/>
                </mxCell>
                <mxCell id="QgcBFsD6iGo6vyBVgqZz-2" value="&lt;u&gt;Id&lt;/u&gt;" style="text;strokeColor=none;fillColor=none;align=left;verticalAlign=middle;spacingLeft=11;spacingRight=4;overflow=hidden;points=[[0,0.5],[1,0.5]];portConstraint=eastwest;rotatable=0;whiteSpace=wrap;html=1;fontSize=14;" parent="QgcBFsD6iGo6vyBVgqZz-1" vertex="1">
                    <mxGeometry y="30" width="140" height="30" as="geometry"/>
                </mxCell>
                <mxCell id="QgcBFsD6iGo6vyBVgqZz-37" value="Nom" style="text;strokeColor=none;fillColor=none;align=left;verticalAlign=middle;spacingLeft=11;spacingRight=4;overflow=hidden;points=[[0,0.5],[1,0.5]];portConstraint=eastwest;rotatable=0;whiteSpace=wrap;html=1;fontSize=14;" parent="QgcBFsD6iGo6vyBVgqZz-1" vertex="1">
                    <mxGeometry y="60" width="140" height="30" as="geometry"/>
                </mxCell>
                <mxCell id="QgcBFsD6iGo6vyBVgqZz-3" value="Date de naissance" style="text;strokeColor=none;fillColor=none;align=left;verticalAlign=middle;spacingLeft=11;spacingRight=4;overflow=hidden;points=[[0,0.5],[1,0.5]];portConstraint=eastwest;rotatable=0;whiteSpace=wrap;html=1;fontSize=14;" parent="QgcBFsD6iGo6vyBVgqZz-1" vertex="1">
                    <mxGeometry y="90" width="140" height="30" as="geometry"/>
                </mxCell>
                <mxCell id="QgcBFsD6iGo6vyBVgqZz-4" value="Rédige" style="ellipse;whiteSpace=wrap;html=1;fontSize=14;" parent="1" vertex="1">
                    <mxGeometry x="57" y="403" width="140" height="55" as="geometry"/>
                </mxCell>
                <mxCell id="QgcBFsD6iGo6vyBVgqZz-5" value="1,n" style="endArrow=none;html=1;rounded=0;exitX=0.5;exitY=1.1;exitDx=0;exitDy=0;entryX=0.5;entryY=0;entryDx=0;entryDy=0;fontSize=14;exitPerimeter=0;" parent="1" source="QgcBFsD6iGo6vyBVgqZz-3" target="QgcBFsD6iGo6vyBVgqZz-4" edge="1">
                    <mxGeometry width="50" height="50" relative="1" as="geometry">
                        <mxPoint x="310" y="430" as="sourcePoint"/>
                        <mxPoint x="360" y="380" as="targetPoint"/>
                    </mxGeometry>
                </mxCell>
                <mxCell id="QgcBFsD6iGo6vyBVgqZz-6" value="1,1" style="endArrow=none;html=1;rounded=0;exitX=0.5;exitY=1;exitDx=0;exitDy=0;entryX=0.5;entryY=0;entryDx=0;entryDy=0;fontSize=14;" parent="1" source="QgcBFsD6iGo6vyBVgqZz-4" target="QgcBFsD6iGo6vyBVgqZz-7" edge="1">
                    <mxGeometry width="50" height="50" relative="1" as="geometry">
                        <mxPoint x="310" y="430" as="sourcePoint"/>
                        <mxPoint x="468.03999999999996" y="290" as="targetPoint"/>
                    </mxGeometry>
                </mxCell>
                <mxCell id="QgcBFsD6iGo6vyBVgqZz-7" value="Article&lt;span style=&quot;font-family: -webkit-standard; font-size: medium; font-weight: 400; text-align: start;&quot;&gt;&lt;/span&gt;" style="swimlane;fontStyle=1;childLayout=stackLayout;horizontal=1;startSize=30;horizontalStack=0;resizeParent=1;resizeParentMax=0;resizeLast=0;collapsible=1;marginBottom=0;whiteSpace=wrap;html=1;fontSize=14;" parent="1" vertex="1">
                    <mxGeometry x="57" y="530" width="140" height="90" as="geometry"/>
                </mxCell>
                <mxCell id="QgcBFsD6iGo6vyBVgqZz-8" value="&lt;u&gt;Id&lt;/u&gt;" style="text;strokeColor=none;fillColor=none;align=left;verticalAlign=middle;spacingLeft=10;spacingRight=4;overflow=hidden;points=[[0,0.5],[1,0.5]];portConstraint=eastwest;rotatable=0;whiteSpace=wrap;html=1;fontSize=14;" parent="QgcBFsD6iGo6vyBVgqZz-7" vertex="1">
                    <mxGeometry y="30" width="140" height="30" as="geometry"/>
                </mxCell>
                <mxCell id="QgcBFsD6iGo6vyBVgqZz-9" value="Contenu" style="text;strokeColor=none;fillColor=none;align=left;verticalAlign=middle;spacingLeft=10;spacingRight=4;overflow=hidden;points=[[0,0.5],[1,0.5]];portConstraint=eastwest;rotatable=0;whiteSpace=wrap;html=1;fontSize=14;" parent="QgcBFsD6iGo6vyBVgqZz-7" vertex="1">
                    <mxGeometry y="60" width="140" height="30" as="geometry"/>
                </mxCell>
                <mxCell id="QgcBFsD6iGo6vyBVgqZz-10" value="A travaillé pour" style="ellipse;whiteSpace=wrap;html=1;fontSize=14;" parent="1" vertex="1">
                    <mxGeometry x="250" y="340" width="140" height="55" as="geometry"/>
                </mxCell>
                <mxCell id="QgcBFsD6iGo6vyBVgqZz-11" value="1,n" style="endArrow=none;html=1;rounded=0;entryX=1;entryY=0.5;entryDx=0;entryDy=0;fontSize=14;exitX=0;exitY=0.5;exitDx=0;exitDy=0;" parent="1" source="QgcBFsD6iGo6vyBVgqZz-25" target="QgcBFsD6iGo6vyBVgqZz-10" edge="1">
                    <mxGeometry width="50" height="50" relative="1" as="geometry">
                        <mxPoint x="390" y="470" as="sourcePoint"/>
                        <mxPoint x="450" y="680" as="targetPoint"/>
                    </mxGeometry>
                </mxCell>
                <mxCell id="QgcBFsD6iGo6vyBVgqZz-12" value="1,n" style="endArrow=none;html=1;rounded=0;exitX=0;exitY=0;exitDx=0;exitDy=0;entryX=1;entryY=0.5;entryDx=0;entryDy=0;fontSize=14;" parent="1" source="QgcBFsD6iGo6vyBVgqZz-10" target="QgcBFsD6iGo6vyBVgqZz-3" edge="1">
                    <mxGeometry width="50" height="50" relative="1" as="geometry">
                        <mxPoint x="400" y="730" as="sourcePoint"/>
                        <mxPoint x="558.04" y="590" as="targetPoint"/>
                    </mxGeometry>
                </mxCell>
                <mxCell id="QgcBFsD6iGo6vyBVgqZz-13" value="Personnalité&lt;span style=&quot;font-family: -webkit-standard; font-size: medium; font-weight: 400; text-align: start;&quot;&gt;&lt;/span&gt;" style="swimlane;fontStyle=1;childLayout=stackLayout;horizontal=1;startSize=30;horizontalStack=0;resizeParent=1;resizeParentMax=0;resizeLast=0;collapsible=1;marginBottom=0;whiteSpace=wrap;html=1;fontSize=14;" parent="1" vertex="1">
                    <mxGeometry x="520" y="163" width="140" height="150" as="geometry"/>
                </mxCell>
                <mxCell id="QgcBFsD6iGo6vyBVgqZz-14" value="&lt;u&gt;Id&lt;/u&gt;" style="text;strokeColor=none;fillColor=none;align=left;verticalAlign=middle;spacingLeft=10;spacingRight=4;overflow=hidden;points=[[0,0.5],[1,0.5]];portConstraint=eastwest;rotatable=0;whiteSpace=wrap;html=1;fontSize=14;" parent="QgcBFsD6iGo6vyBVgqZz-13" vertex="1">
                    <mxGeometry y="30" width="140" height="30" as="geometry"/>
                </mxCell>
                <mxCell id="QgcBFsD6iGo6vyBVgqZz-39" value="Nom" style="text;strokeColor=none;fillColor=none;align=left;verticalAlign=middle;spacingLeft=10;spacingRight=4;overflow=hidden;points=[[0,0.5],[1,0.5]];portConstraint=eastwest;rotatable=0;whiteSpace=wrap;html=1;fontSize=14;" parent="QgcBFsD6iGo6vyBVgqZz-13" vertex="1">
                    <mxGeometry y="60" width="140" height="30" as="geometry"/>
                </mxCell>
                <mxCell id="QgcBFsD6iGo6vyBVgqZz-40" value="Prénom" style="text;strokeColor=none;fillColor=none;align=left;verticalAlign=middle;spacingLeft=10;spacingRight=4;overflow=hidden;points=[[0,0.5],[1,0.5]];portConstraint=eastwest;rotatable=0;whiteSpace=wrap;html=1;fontSize=14;" parent="QgcBFsD6iGo6vyBVgqZz-13" vertex="1">
                    <mxGeometry y="90" width="140" height="30" as="geometry"/>
                </mxCell>
                <mxCell id="QgcBFsD6iGo6vyBVgqZz-15" value="Nationalité" style="text;strokeColor=none;fillColor=none;align=left;verticalAlign=middle;spacingLeft=10;spacingRight=4;overflow=hidden;points=[[0,0.5],[1,0.5]];portConstraint=eastwest;rotatable=0;whiteSpace=wrap;html=1;fontSize=14;" parent="QgcBFsD6iGo6vyBVgqZz-13" vertex="1">
                    <mxGeometry y="120" width="140" height="30" as="geometry"/>
                </mxCell>
                <mxCell id="QgcBFsD6iGo6vyBVgqZz-16" value="Relatif à" style="ellipse;whiteSpace=wrap;html=1;fontSize=14;" parent="1" vertex="1">
                    <mxGeometry x="59" y="697.5" width="140" height="55" as="geometry"/>
                </mxCell>
                <mxCell id="QgcBFsD6iGo6vyBVgqZz-17" value="1,n" style="endArrow=none;html=1;rounded=0;fontSize=14;entryX=1;entryY=0.5;entryDx=0;entryDy=0;exitX=-0.014;exitY=0.867;exitDx=0;exitDy=0;exitPerimeter=0;" parent="1" source="QgcBFsD6iGo6vyBVgqZz-14" target="QgcBFsD6iGo6vyBVgqZz-19" edge="1">
                    <mxGeometry width="50" height="50" relative="1" as="geometry">
                        <mxPoint x="510" y="220" as="sourcePoint"/>
                        <mxPoint x="510" y="370" as="targetPoint"/>
                    </mxGeometry>
                </mxCell>
                <mxCell id="QgcBFsD6iGo6vyBVgqZz-18" value="1,1" style="endArrow=none;html=1;rounded=0;exitX=0.5;exitY=0;exitDx=0;exitDy=0;entryX=0.514;entryY=1.1;entryDx=0;entryDy=0;fontSize=14;entryPerimeter=0;" parent="1" source="QgcBFsD6iGo6vyBVgqZz-16" target="QgcBFsD6iGo6vyBVgqZz-9" edge="1">
                    <mxGeometry width="50" height="50" relative="1" as="geometry">
                        <mxPoint x="395" y="755" as="sourcePoint"/>
                        <mxPoint x="520" y="558" as="targetPoint"/>
                    </mxGeometry>
                </mxCell>
                <mxCell id="QgcBFsD6iGo6vyBVgqZz-19" value="Interview" style="ellipse;whiteSpace=wrap;html=1;fontSize=14;" parent="1" vertex="1">
                    <mxGeometry x="300" y="193" width="140" height="55" as="geometry"/>
                </mxCell>
                <mxCell id="QgcBFsD6iGo6vyBVgqZz-20" value="1,n" style="endArrow=none;html=1;rounded=0;entryX=1;entryY=0.933;entryDx=0;entryDy=0;fontSize=14;entryPerimeter=0;exitX=0;exitY=0.5;exitDx=0;exitDy=0;" parent="1" source="QgcBFsD6iGo6vyBVgqZz-19" target="QgcBFsD6iGo6vyBVgqZz-2" edge="1">
                    <mxGeometry width="50" height="50" relative="1" as="geometry">
                        <mxPoint x="300" y="206" as="sourcePoint"/>
                        <mxPoint x="250" y="116" as="targetPoint"/>
                    </mxGeometry>
                </mxCell>
                <mxCell id="QgcBFsD6iGo6vyBVgqZz-24" value="Journal&lt;span style=&quot;font-family: -webkit-standard; font-size: medium; font-weight: 400; text-align: start;&quot;&gt;&lt;/span&gt;" style="swimlane;fontStyle=1;childLayout=stackLayout;horizontal=1;startSize=30;horizontalStack=0;resizeParent=1;resizeParentMax=0;resizeLast=0;collapsible=1;marginBottom=0;whiteSpace=wrap;html=1;fontSize=14;" parent="1" vertex="1">
                    <mxGeometry x="520" y="360" width="140" height="120" as="geometry"/>
                </mxCell>
                <mxCell id="QgcBFsD6iGo6vyBVgqZz-25" value="&lt;u&gt;Id&lt;/u&gt;" style="text;strokeColor=none;fillColor=none;align=left;verticalAlign=middle;spacingLeft=10;spacingRight=4;overflow=hidden;points=[[0,0.5],[1,0.5]];portConstraint=eastwest;rotatable=0;whiteSpace=wrap;html=1;fontSize=14;" parent="QgcBFsD6iGo6vyBVgqZz-24" vertex="1">
                    <mxGeometry y="30" width="140" height="30" as="geometry"/>
                </mxCell>
                <mxCell id="QgcBFsD6iGo6vyBVgqZz-38" value="Titre" style="text;strokeColor=none;fillColor=none;align=left;verticalAlign=middle;spacingLeft=10;spacingRight=4;overflow=hidden;points=[[0,0.5],[1,0.5]];portConstraint=eastwest;rotatable=0;whiteSpace=wrap;html=1;fontSize=14;" parent="QgcBFsD6iGo6vyBVgqZz-24" vertex="1">
                    <mxGeometry y="60" width="140" height="30" as="geometry"/>
                </mxCell>
                <mxCell id="QgcBFsD6iGo6vyBVgqZz-26" value="Adresse" style="text;strokeColor=none;fillColor=none;align=left;verticalAlign=middle;spacingLeft=10;spacingRight=4;overflow=hidden;points=[[0,0.5],[1,0.5]];portConstraint=eastwest;rotatable=0;whiteSpace=wrap;html=1;fontSize=14;" parent="QgcBFsD6iGo6vyBVgqZz-24" vertex="1">
                    <mxGeometry y="90" width="140" height="30" as="geometry"/>
                </mxCell>
                <mxCell id="QgcBFsD6iGo6vyBVgqZz-27" value="Sujet&lt;span style=&quot;font-family: -webkit-standard; font-size: medium; font-weight: 400; text-align: start;&quot;&gt;&lt;/span&gt;" style="swimlane;fontStyle=1;childLayout=stackLayout;horizontal=1;startSize=30;horizontalStack=0;resizeParent=1;resizeParentMax=0;resizeLast=0;collapsible=1;marginBottom=0;whiteSpace=wrap;html=1;fontSize=14;" parent="1" vertex="1">
                    <mxGeometry x="270" y="680" width="140" height="90" as="geometry"/>
                </mxCell>
                <mxCell id="QgcBFsD6iGo6vyBVgqZz-28" value="&lt;u&gt;Id&lt;/u&gt;" style="text;strokeColor=none;fillColor=none;align=left;verticalAlign=middle;spacingLeft=10;spacingRight=4;overflow=hidden;points=[[0,0.5],[1,0.5]];portConstraint=eastwest;rotatable=0;whiteSpace=wrap;html=1;fontSize=14;" parent="QgcBFsD6iGo6vyBVgqZz-27" vertex="1">
                    <mxGeometry y="30" width="140" height="30" as="geometry"/>
                </mxCell>
                <mxCell id="QgcBFsD6iGo6vyBVgqZz-29" value="Libellé" style="text;strokeColor=none;fillColor=none;align=left;verticalAlign=middle;spacingLeft=10;spacingRight=4;overflow=hidden;points=[[0,0.5],[1,0.5]];portConstraint=eastwest;rotatable=0;whiteSpace=wrap;html=1;fontSize=14;" parent="QgcBFsD6iGo6vyBVgqZz-27" vertex="1">
                    <mxGeometry y="60" width="140" height="30" as="geometry"/>
                </mxCell>
                <mxCell id="QgcBFsD6iGo6vyBVgqZz-30" value="0,n" style="endArrow=none;html=1;rounded=0;entryX=1;entryY=0.5;entryDx=0;entryDy=0;fontSize=14;exitX=0;exitY=0.5;exitDx=0;exitDy=0;" parent="1" source="QgcBFsD6iGo6vyBVgqZz-28" target="QgcBFsD6iGo6vyBVgqZz-16" edge="1">
                    <mxGeometry width="50" height="50" relative="1" as="geometry">
                        <mxPoint x="360" y="640" as="sourcePoint"/>
                        <mxPoint x="250" y="560" as="targetPoint"/>
                    </mxGeometry>
                </mxCell>
                <mxCell id="QgcBFsD6iGo6vyBVgqZz-31" value="Parait dans" style="ellipse;whiteSpace=wrap;html=1;fontSize=14;" parent="1" vertex="1">
                    <mxGeometry x="280" y="547.5" width="140" height="55" as="geometry"/>
                </mxCell>
                <mxCell id="QgcBFsD6iGo6vyBVgqZz-32" value="0,n" style="endArrow=none;html=1;rounded=0;exitX=0;exitY=0.5;exitDx=0;exitDy=0;entryX=1;entryY=0.5;entryDx=0;entryDy=0;fontSize=14;" parent="1" source="QgcBFsD6iGo6vyBVgqZz-31" target="QgcBFsD6iGo6vyBVgqZz-8" edge="1">
                    <mxGeometry width="50" height="50" relative="1" as="geometry">
                        <mxPoint x="595" y="643" as="sourcePoint"/>
                        <mxPoint x="342" y="511" as="targetPoint"/>
                    </mxGeometry>
                </mxCell>
                <mxCell id="QgcBFsD6iGo6vyBVgqZz-33" value="Numéro&lt;span style=&quot;font-family: -webkit-standard; font-size: medium; font-weight: 400; text-align: start;&quot;&gt;&lt;/span&gt;" style="swimlane;fontStyle=1;childLayout=stackLayout;horizontal=1;startSize=30;horizontalStack=0;resizeParent=1;resizeParentMax=0;resizeLast=0;collapsible=1;marginBottom=0;whiteSpace=wrap;html=1;fontSize=14;" parent="1" vertex="1">
                    <mxGeometry x="520" y="530" width="140" height="90" as="geometry"/>
                </mxCell>
                <mxCell id="QgcBFsD6iGo6vyBVgqZz-34" value="&lt;u&gt;Id&lt;/u&gt;" style="text;strokeColor=none;fillColor=none;align=left;verticalAlign=middle;spacingLeft=10;spacingRight=4;overflow=hidden;points=[[0,0.5],[1,0.5]];portConstraint=eastwest;rotatable=0;whiteSpace=wrap;html=1;fontSize=14;" parent="QgcBFsD6iGo6vyBVgqZz-33" vertex="1">
                    <mxGeometry y="30" width="140" height="30" as="geometry"/>
                </mxCell>
                <mxCell id="QgcBFsD6iGo6vyBVgqZz-35" value="Date" style="text;strokeColor=none;fillColor=none;align=left;verticalAlign=middle;spacingLeft=10;spacingRight=4;overflow=hidden;points=[[0,0.5],[1,0.5]];portConstraint=eastwest;rotatable=0;whiteSpace=wrap;html=1;fontSize=14;" parent="QgcBFsD6iGo6vyBVgqZz-33" vertex="1">
                    <mxGeometry y="60" width="140" height="30" as="geometry"/>
                </mxCell>
                <mxCell id="QgcBFsD6iGo6vyBVgqZz-36" value="1,n" style="endArrow=none;html=1;rounded=0;entryX=1;entryY=0.5;entryDx=0;entryDy=0;fontSize=14;exitX=0;exitY=0.5;exitDx=0;exitDy=0;" parent="1" source="QgcBFsD6iGo6vyBVgqZz-34" target="QgcBFsD6iGo6vyBVgqZz-31" edge="1">
                    <mxGeometry width="50" height="50" relative="1" as="geometry">
                        <mxPoint x="560" y="528" as="sourcePoint"/>
                        <mxPoint x="450" y="448" as="targetPoint"/>
                    </mxGeometry>
                </mxCell>
            </root>
        </mxGraphModel>
    </diagram>
</mxfile>